<?xml version="1.0" encoding="utf-8"?>
<!-- Generator: Adobe Illustrator 27.0.0, SVG Export Plug-In . SVG Version: 6.00 Build 0)  -->
<svg version="1.1" id="Layer_1" xmlns="http://www.w3.org/2000/svg" xmlns:xlink="http://www.w3.org/1999/xlink" x="0px" y="0px"
	 viewBox="0 0 177.5 21" style="enable-background:new 0 0 177.5 21;" xml:space="preserve">
<g>
	<path d="M2.4,20.5V0.6h2.3c3.1,4.8,10.3,15.8,11.6,18h0c-0.2-2.9-0.1-5.8-0.1-9v-9h1.6v19.8h-2.1C12.7,15.9,5.3,4.3,3.9,2.2h0
		C4,4.8,4,7.7,4,11.3v9.2H2.4z"/>
	<path d="M32.1,10.7H22v8.3h11.1l-0.2,1.4H20.5V0.6h12.2V2H22v7.3h10.1V10.7z"/>
	<path d="M47.4,20.5l-6-8.9h0l-5.9,8.9h-1.8l6.8-10.1L34,0.6h1.8l5.7,8.5h0l5.8-8.5H49l-6.7,9.6l6.9,10.2H47.4z"/>
	<path d="M56.7,2H50V0.6h14.9V2h-6.7v18.4h-1.6V2z"/>
	<path d="M66,0.5h12.3c5.1,0,7.2,2.4,7.2,5.2c0,2.3-1.4,3.7-3.1,4.3c2,0.6,3.9,2.1,3.9,4.6c0,3.4-2.5,5.9-8.1,5.9H66V0.5z M76.7,8.2
		c1.8,0,2.3-0.8,2.3-1.8c0-1.2-0.9-1.8-2.3-1.8h-4.4v3.5H76.7z M72.3,16.4h4.5c1.7,0,2.7-0.6,2.7-2.1c0-1.2-0.8-2-2.6-2h-4.6V16.4z"
		/>
	<path d="M95,0.5v19.9h-6.5V0.5H95z"/>
	<path d="M119.2,20.5h-4.5c-0.1-0.4-0.3-1.1-0.4-1.8c-1.3,1.4-3,2.3-6.6,2.3c-6.6,0-10.2-4.4-10.2-10.2c0-5.7,3.6-10.6,11.4-10.6
		c6.3,0,9.7,3.2,10.2,6.6h-6.5c-0.3-0.9-1.2-2.3-3.7-2.3c-3.4,0-4.6,2.8-4.6,6c0,3.5,1.4,6.2,4.7,6.2c2.8,0,3.8-1.6,3.8-3.2v-0.2
		H109V8.9h10.1V20.5z"/>
	<path d="M123.6,0.6v19.8h-1.5V0.6H123.6z"/>
	<path d="M127.3,0.6h6.6c5.4,0,9.2,3.8,9.2,9.8c0,5.9-3.7,10.1-9.2,10.1h-6.5V0.6z M128.8,19.1h4.8c5.2,0,7.8-3.7,7.8-8.6
		c0-4.4-2.3-8.4-7.8-8.4h-4.8V19.1z"/>
	<path d="M156.4,10.7h-10.1v8.3h11.1l-0.2,1.4h-12.4V0.6h12.2V2h-10.6v7.3h10.1V10.7z"/>
	<path d="M162.4,13.6l-2.5,6.9h-1.6l7.3-19.8h1.8l7.6,19.8h-1.7l-2.6-6.9H162.4z M170.2,12.2c-2.2-5.9-3.3-8.7-3.7-10.1h0
		c-0.5,1.5-1.8,5-3.5,10.1H170.2z"/>
</g>
</svg>
