<?xml version="1.0" encoding="UTF-8"?>
<svg xmlns="http://www.w3.org/2000/svg" version="1.1" xmlns:xlink="http://www.w3.org/1999/xlink" viewBox="0 0 1512 499">
  <defs>
    <style>
      .cls-1, .cls-2 {
        fill: #f03f3f;
      }

      .cls-1, .cls-3 {
        fill-rule: evenodd;
      }

      .cls-4 {
        fill-opacity: .3;
      }

      .cls-4, .cls-5 {
        display: none;
      }

      .cls-4, .cls-6 {
        fill: #deeef9;
      }

      .cls-7 {
        fill: #919395;
      }

      .cls-8, .cls-5 {
        fill: #fff;
      }

      .cls-9 {
        stroke: #deeef9;
        stroke-dasharray: 32 32;
        stroke-width: 2px;
      }

      .cls-9, .cls-10 {
        fill: none;
      }

      .cls-11 {
        clip-path: url(#clippath-1);
      }

      .cls-12 {
        clip-path: url(#clippath-2);
      }

      .cls-13 {
        clip-path: url(#clippath);
      }
    </style>
    <clipPath id="clippath">
      <rect class="cls-10" width="1512" height="499"/>
    </clipPath>
    <clipPath id="clippath-1">
      <rect class="cls-10" x="1150" y="133.8" width="72" height="18.4"/>
    </clipPath>
    <clipPath id="clippath-2">
      <rect class="cls-10" x="926" y="217.3" width="66" height="17.4"/>
    </clipPath>
  </defs>
  <!-- Generator: Adobe Illustrator 28.7.3, SVG Export Plug-In . SVG Version: 1.2.0 Build 164)  -->
  <g>
    <g id="Capa_1">
      <g class="cls-13">
        <g>
          <rect class="cls-4" width="1512" height="499"/>
          <circle class="cls-6" cx="1347.5" cy="245.5" r="365.5"/>
          <g>
            <rect class="cls-8" x="1420" y="119" width="100" height="100" rx="10" ry="10"/>
            <path class="cls-7" d="M1477.5,174.3c-3.6,2.7-8.9,4.1-13.4,4.1s-12.1-2.3-16.4-6.2c-.3-.3,0-.7.4-.5,4.7,2.7,10.4,4.3,16.4,4.3s8.4-.8,12.5-2.6c.6-.3,1.1.4.5.8Z"/>
            <path class="cls-7" d="M1479,172.6c-.5-.6-3.1-.3-4.2-.1-.4,0-.4-.3,0-.5,2.1-1.5,5.5-1,5.9-.5.4.5-.1,3.9-2,5.5-.3.2-.6.1-.5-.2.4-1.1,1.4-3.5,1-4.1Z"/>
            <path class="cls-7" d="M1474.9,161.7v-1.4c0-.2.2-.4.4-.4h6.3c.2,0,.4.1.4.4v1.2c0,.2-.2.5-.5.9l-3.3,4.7c1.2,0,2.5.2,3.6.8.2.1.3.3.3.6v1.5c0,.2-.2.4-.5.3-2-1-4.5-1.1-6.7,0-.2.1-.4-.1-.4-.3v-1.4c0-.2,0-.6.2-1l3.8-5.5h-3.3c-.2,0-.4-.1-.4-.4Z"/>
            <path class="cls-7" d="M1451.7,170.5h-1.9c-.2,0-.3-.2-.4-.3v-9.9c0-.2.2-.4.4-.4h1.8c.2,0,.3.2.4.3v1.3h0c.5-1.3,1.3-1.8,2.5-1.8s2,.6,2.5,1.8c.5-1.3,1.5-1.8,2.7-1.8s1.7.3,2.2,1.1c.6.8.5,2,.5,3.1v6.3c0,.2-.2.4-.4.4h-1.9c-.2,0-.3-.2-.3-.4v-5.3c0-.4,0-1.5,0-1.9-.1-.7-.6-.9-1.1-.9s-1,.3-1.2.8c-.2.5-.2,1.3-.2,1.9v5.3c0,.2-.2.4-.4.4h-1.9c-.2,0-.3-.2-.3-.4v-5.3c0-1.1.2-2.7-1.2-2.7s-1.3,1.6-1.3,2.7v5.3c0,.2-.2.4-.4.4Z"/>
            <path class="cls-7" d="M1487.4,159.7c2.9,0,4.4,2.5,4.4,5.6s-1.7,5.4-4.4,5.4-4.3-2.5-4.3-5.5,1.5-5.5,4.3-5.5ZM1487.4,161.7c-1.4,0-1.5,1.9-1.5,3.1s0,3.8,1.5,3.8,1.6-2.1,1.6-3.4,0-1.8-.3-2.6c-.2-.7-.7-1-1.3-1Z"/>
            <path class="cls-7" d="M1495.5,170.5h-1.9c-.2,0-.3-.2-.3-.4v-9.9c0-.2.2-.3.4-.3h1.8c.2,0,.3.1.3.3v1.5h0c.5-1.4,1.3-2,2.6-2s1.7.3,2.3,1.2c.5.8.5,2.1.5,3.1v6.2c0,.2-.2.3-.4.3h-1.9c-.2,0-.3-.1-.3-.3v-5.4c0-1.1.1-2.7-1.2-2.7s-.9.3-1.1.8c-.3.6-.3,1.2-.3,1.9v5.3c0,.2-.2.4-.4.4Z"/>
            <path class="cls-7" d="M1469.8,165.8v-.4c-1.4,0-2.9.3-2.9,1.9s.4,1.4,1.2,1.4,1-.3,1.3-.9c.4-.7.4-1.3.4-2ZM1471.8,170.5c-.1.1-.3.1-.4,0-.6-.5-.8-.8-1.1-1.3-1.1,1.1-1.8,1.4-3.2,1.4s-2.9-1-2.9-3,.8-2.6,2.1-3.2c1-.5,2.5-.5,3.6-.7v-.2c0-.5,0-1-.2-1.4-.2-.4-.7-.5-1.1-.5-.7,0-1.4.4-1.6,1.2,0,.2-.2.3-.3.4l-1.9-.2c-.2,0-.3-.2-.3-.4.4-2.3,2.5-3,4.3-3s2.2.2,2.9,1c.9.9.8,2,.8,3.3v3c0,.9.4,1.3.7,1.8.1.2.2.4,0,.5-.4.3-1.1.9-1.5,1.3h0Z"/>
            <path class="cls-7" d="M1444.5,165.8v-.4c-1.4,0-2.9.3-2.9,1.9s.4,1.4,1.2,1.4,1-.3,1.3-.9c.4-.7.4-1.3.4-2ZM1446.4,170.5c-.1.1-.3.1-.4,0-.6-.5-.8-.8-1.1-1.3-1.1,1.1-1.8,1.4-3.2,1.4s-2.9-1-2.9-3,.8-2.6,2.1-3.2c1-.5,2.5-.5,3.6-.7v-.2c0-.5,0-1-.2-1.4-.2-.4-.7-.5-1.1-.5-.7,0-1.4.4-1.6,1.2,0,.2-.2.3-.3.4l-1.9-.2c-.2,0-.3-.2-.3-.4.4-2.3,2.5-3,4.3-3s2.2.2,2.9,1c.9.9.8,2,.8,3.3v3c0,.9.4,1.3.7,1.8.1.2.2.4,0,.5-.4.3-1.1.9-1.5,1.3h0Z"/>
          </g>
          <g>
            <rect class="cls-8" x="1256" y="233" width="100" height="100" rx="10" ry="10"/>
            <path class="cls-2" d="M1301.5,283.5c0,2.9-2.3,5.1-5.1,5.1s-5.1-2.2-5.1-5.1,2.3-5.1,5.1-5.1,5.1,2.1,5.1,5.1ZM1299.3,283.5c0-1.8-1.3-3.1-2.9-3.1s-2.9,1.3-2.9,3.1,1.3,3.1,2.9,3.1,2.9-1.3,2.9-3.1Z"/>
            <path class="cls-2" d="M1312.6,283.5c0,2.9-2.3,5.1-5.1,5.1s-5.1-2.2-5.1-5.1,2.3-5.1,5.1-5.1,5.1,2.1,5.1,5.1ZM1310.3,283.5c0-1.8-1.3-3.1-2.9-3.1s-2.9,1.3-2.9,3.1,1.3,3.1,2.9,3.1,2.9-1.3,2.9-3.1Z"/>
            <path class="cls-2" d="M1323.2,278.7v9.2c0,3.8-2.2,5.3-4.8,5.3s-4-1.7-4.5-3l1.9-.8c.3.8,1.2,1.8,2.6,1.8s2.7-1,2.7-3v-.7h0c-.5.6-1.5,1.2-2.7,1.2-2.6,0-4.9-2.2-4.9-5.1s2.3-5.1,4.9-5.1,2.2.5,2.7,1.1h0v-.8h2.1ZM1321.2,283.6c0-1.8-1.2-3.1-2.7-3.1s-2.8,1.3-2.8,3.1,1.3,3.1,2.8,3.1,2.7-1.3,2.7-3.1Z"/>
            <path class="cls-2" d="M1326.7,273.4v15h-2.2v-15h2.2Z"/>
            <path class="cls-2" d="M1335.2,285.2l1.7,1.2c-.6.8-1.9,2.3-4.2,2.3s-5.1-2.2-5.1-5.1,2.2-5.1,4.8-5.1,3.9,2.1,4.4,3.2l.2.6-6.8,2.8c.5,1,1.3,1.5,2.5,1.5s1.9-.6,2.5-1.4ZM1329.8,283.4l4.6-1.9c-.2-.6-1-1.1-1.9-1.1s-2.7,1-2.7,3Z"/>
            <path class="cls-2" d="M1283,282.2v-2.2h7.3c0,.4.1.8.1,1.3,0,1.6-.5,3.6-1.9,5.1-1.4,1.4-3.2,2.2-5.5,2.2-4.4,0-8-3.6-8-7.9s3.7-7.9,8-7.9,4.1.9,5.4,2.2l-1.5,1.5c-.9-.9-2.2-1.5-3.9-1.5-3.2,0-5.7,2.6-5.7,5.8s2.5,5.8,5.7,5.8,3.2-.8,4-1.6c.6-.6,1-1.5,1.2-2.7h-5.2Z"/>
          </g>
          <g>
            <rect class="cls-8" x="1186" y="408" width="100" height="100" rx="10" ry="10"/>
            <path class="cls-1" d="M1221.9,457.1c0,0,.2,0,.2.2v5.7s0,.1,0,.1c0,0-1.3.9-3.4.9s-5.6-.8-5.6-5.9,2.7-6.1,5.2-6.1,3.1.5,3.3.6c0,0,0,0,0,.1l-.4,1.8c0,0-.1.2-.2.2-.4-.1-.9-.3-2.2-.3s-3.1.4-3.1,3.7,1.5,3.7,2.7,3.7,1.3-.1,1.3-.1v-2.3h-1.5c0,0-.2,0-.2-.2v-1.8c0,0,0-.2.2-.2h3.9ZM1241.8,452.6v11c0,0,0,.2-.2.2h-2.2c-.1,0-.2,0-.2-.2v-4.7s-3.4,0-3.4,0v4.7c0,0,0,.2-.2.2h-2.2c0,0-.2,0-.2-.2v-11c0,0,0-.2.2-.2h2.2c0,0,.2,0,.2.2v4.1h3.4v-4.1c0,0,0-.2.2-.2h2.2c0,0,.2,0,.2.2ZM1226,454.1c0,.8-.6,1.4-1.4,1.4s-1.4-.6-1.4-1.4.6-1.4,1.4-1.4,1.4.6,1.4,1.4ZM1225.8,456.2v7.3c0,.2,0,.3-.3.3h-2c-.2,0-.3,0-.3-.3v-7.3c0,0,0-.2.2-.2h2.2c0,0,.2,0,.2.2ZM1250.1,456c0,0,.2,0,.2.2v7.4c0,0,0,.2-.2.2h-1.4c0,0-.1,0-.2,0,0,0,0-.4,0-.4,0,0-1.2.8-2.6.8s-3-.5-3-2.7v-5.1c0,0,0-.2.2-.2h2.2c0,0,.2,0,.2.2v4.7c0,.7.2,1.1,1,1.1s1.3-.4,1.3-.4v-5.4c0,0,0-.2.2-.2h2.2ZM1256,455.8c1.2,0,3,.4,3,3.8s-1.1,4.4-3.1,4.4-2.6-.8-2.6-.8c0,0,0,.4,0,.5,0,0,0,0-.2,0h-1.5c0,0-.2,0-.2-.2v-11c0,0,0-.2.2-.2h2.2c0,0,.2,0,.2.2v3.7s.8-.5,2.1-.5ZM1255.1,462c1.1,0,1.4-.3,1.4-2.2s-.8-2-1.5-1.9c-.6,0-1.1.3-1.1.3v3.5s.5.3,1.2.4ZM1232.1,456c.1,0,.2,0,.2.2v1.7c0,0,0,.2-.2.2h-1.6v3.1c0,.5.3.8,1.1.8s.5,0,.6,0,.2,0,.2.2v1.5c0,0,0,.1-.1.2-.1,0-.8.2-1.3.2-1.2,0-2.9-.2-2.9-2.7v-3.2h-1.1c-.1,0-.2,0-.2-.2v-1.4c0,0,0-.1.1-.2,0,0,1.2-.3,1.2-.3v-2.1c0,0,0-.1.1-.1h2.2c0,0,.1,0,.1.1v2.1h1.6Z"/>
          </g>
          <g>
            <rect class="cls-8" x="1039" y="303" width="100" height="100" rx="10" ry="10"/>
            <path d="M1082.3,355.7l-2-5.7h-1.1v-7.7h-21.2v21.2h21.2v-10.2l2.1,5.1h2.1l3.4-8.4h-2.4l-2,5.7Z"/>
            <path d="M1089.7,350.1h-2.3v8.4h2.3v-8.4Z"/>
            <path d="M1093.4,352.5c0-.5.4-.8,1.2-.8s1.2.5,1.3,1h2.2c0-1.2-.9-2.8-3.4-2.8s-3.4,1.3-3.4,2.8c0,3.3,4.7,2,4.7,3.4s-.4.8-1.3.8-1.4-.5-1.4-1.1h-2.3c.1,1.6,1,2.9,3.7,2.9s3.6-1.2,3.6-2.7c0-3.5-4.7-2-4.7-3.5Z"/>
            <path d="M1101.5,350.1h-2.3v8.4h2.3v-8.4Z"/>
            <path d="M1106.9,349.9c-2.7,0-4.4,2-4.4,4.4s1.7,4.4,4.4,4.4,4.4-2,4.4-4.4-1.7-4.4-4.4-4.4ZM1106.9,356.7c-1.2,0-2.1-.9-2.1-2.4s.9-2.4,2.1-2.4,2.1.9,2.1,2.4-.9,2.4-2.1,2.4Z"/>
            <path d="M1116.9,349.9c-1.2,0-2.1.5-2.5,1.2v-1h-2.1v8.4h2.3v-4.8c0-1.1.6-1.8,1.7-1.8s1.4.7,1.4,1.7v5h2.3v-5.3c0-2-1.1-3.4-3.1-3.4Z"/>
            <path d="M1065.4,349.1c.2,0,.5,0,.7-.2.2-.1.4-.3.5-.5,0-.2.1-.5,0-.7,0-.2-.2-.5-.3-.6-.2-.2-.4-.3-.6-.3s-.5,0-.7,0c-.2,0-.4.2-.5.4-.1.2-.2.4-.2.7s0,.3,0,.5c0,.1.2.3.3.4.1.1.2.2.4.3.2,0,.3,0,.5,0Z"/>
            <path class="cls-8" d="M1062.8,355.6c0,.3,0,.6-.1.9,0,1.1.6,1.8,1.8,1.8s1.8-.6,2.4-1.6l-.4,1.5h2l1.2-4.7c.3-1.2.8-1.8,1.7-1.8s1.1.4,1.1,1.1c0,.2,0,.4,0,.7l-.6,2.1c0,.3-.1.6-.1.9,0,1,.6,1.8,1.9,1.8s1.9-.7,2.4-2.3l-.8-.3c-.4,1.1-.7,1.3-1,1.3s-.4-.2-.4-.5c0-.2,0-.4,0-.6l.6-2.1c.1-.4.2-.9.2-1.3,0-1.6-.9-2.4-2.1-2.4s-2.2,1-2.7,2l.4-1.8h-3.1l-.4,1.6h1.4l-.9,3.6c-.7,1.6-2,1.6-2.1,1.6-.3,0-.4-.2-.4-.5,0-.3,0-.6.1-.8l1.4-5.4h-3.4l-.4,1.6h1.4l-.9,3.8Z"/>
          </g>
          <rect class="cls-5" x="989" y="464" width="100" height="100" rx="10" ry="10"/>
          <g>
            <rect class="cls-8" x="1136" y="93" width="100" height="100" rx="10" ry="10"/>
            <g class="cls-11">
              <g>
                <path class="cls-7" d="M1159.4,143.6c-1.2,0-2.1.5-2.8,1.4-.4-.7-1.2-1.4-2.4-1.4s-1.9.5-2.4,1.1v-.2c0-.5-.4-.9-.9-.9s-.8.4-.8.9v6.5c0,.5.4.8.8.8s.9-.4.9-.8v-4.5c.4-.6,1-1.3,2-1.3s1.4.5,1.4,1.7v4.1c0,.5.4.8.9.8s.9-.4.9-.8v-4.5c.4-.6,1-1.3,2-1.3s1.4.5,1.4,1.7v4.1c0,.5.4.8.8.8s.9-.4.9-.8v-4.4c0-1.5-.8-3.1-2.7-3.1ZM1167.6,143.6c-.9,0-1.8.2-2.7.6-.3.1-.5.4-.5.7s.3.7.7.7.1,0,.2,0c.6-.2,1.2-.4,2-.4,1.3,0,1.9.5,1.9,1.7h-1.7c-2.3,0-3.7,1-3.7,2.6s1.3,2.4,2.7,2.4,2-.3,2.7-.9h0c0,.5.4.9.8.9s.9-.4.9-.8v-4.3c0-1.6-1-3.2-3.4-3.2ZM1167.1,150.4c-1,0-1.5-.4-1.5-1.1s0-1,2.2-1h1.5v1.1c-.4.5-1.3,1-2.2,1ZM1174.3,140.5c.5,0,.9.4.9.9h0c0,.6-.4,1-.9,1h0c-.5,0-.9-.4-.9-.9h0c0-.6.4-1,.9-1h0ZM1174.3,143.7c.5,0,.9.4.9.9v6.5c0,.5-.4.8-.9.8s-.9-.4-.9-.8v-6.5c0-.5.4-.9.9-.9ZM1178.7,140.3c.5,0,.9.4.9.9v9.9c0,.5-.4.8-.9.8s-.8-.4-.8-.8v-9.9c0-.5.4-.9.8-.9ZM1185.5,143.6c-1.2,0-2.2.5-2.9,1.3-.6.7-.9,1.8-.9,2.9,0,2.6,1.6,4.2,4.1,4.2s2.1-.3,2.8-.7c.3-.2.5-.4.5-.7,0-.4-.3-.8-.8-.8s-.2,0-.3,0c-.5.2-1,.5-2,.5-1.4,0-2.3-.7-2.5-1.9h5c.5,0,.9-.4.9-.8,0-2.8-1.9-4-3.8-4ZM1185.5,145.1c.7,0,1.9.4,2.1,1.9h-4.2c.2-1.3,1.2-1.9,2.1-1.9ZM1195.2,143.6c.5,0,.8.4.8.8s-.4.8-.9.8h0c-.9,0-1.7.4-2.2,1.2v4.6c0,.5-.4.8-.9.8s-.9-.4-.9-.8v-6.5c0-.5.4-.9.9-.9s.9.4.9.9v.2c.7-.7,1.4-1.1,2.2-1.1h0Z"/>
                <path class="cls-7" d="M1219.5,134h-17.6c-1.3,0-2.5,1.1-2.5,2.5v15.6l3.4-3.4h16.7c1.4,0,2.5-1.1,2.5-2.5v-9.8c0-1.4-1.1-2.5-2.5-2.5Z"/>
                <path class="cls-8" d="M1216.2,139.7c1.9,0,2.8,1.5,2.8,2.9s-.3.6-.7.6h-3.5c.2.8.8,1.3,1.7,1.3s1.1-.1,1.4-.3c0,0,.2,0,.3,0,.3,0,.6.3.6.6s-.1.4-.4.5c-.5.3-1,.5-2,.5-1.9,0-3-1.1-3-3s1.5-3,2.8-3ZM1210.7,138.7c.2,0,.4.2.4.4v.7h1.1c.3,0,.6.3.6.6s-.3.6-.6.6h-1.1v3.1c0,.4.2.5.6.5s.3,0,.4,0c0,0,.2,0,.3,0,.3,0,.6.2.6.6,0,.2-.1.4-.3.5-.3.1-.6.2-1,.2-1.1,0-1.8-.5-1.8-1.6v-3.2h-.6c-.2,0-.4-.2-.4-.4s0-.2.1-.3l1.5-1.4s.1-.1.3-.1ZM1204,137.3c.4,0,.7.3.7.7v7c0,.4-.3.6-.7.6s-.7-.3-.7-.6v-7c0-.4.3-.7.7-.7ZM1207.1,139.7c.4,0,.7.3.7.7v4.6c0,.4-.3.6-.7.6s-.6-.3-.6-.6v-4.6c0-.4.3-.7.6-.7ZM1216.2,140.8c-.6,0-1.3.4-1.4,1.2h2.8c-.1-.9-.8-1.2-1.4-1.2ZM1207.1,137.5c.4,0,.7.3.7.7h0c0,.4-.3.8-.7.8h0c-.4,0-.7-.3-.7-.7h0c0-.4.3-.8.7-.8h0Z"/>
              </g>
            </g>
          </g>
          <g>
            <rect class="cls-8" x="1351" y="355" width="100" height="100" rx="10" ry="10"/>
            <path d="M1384.4,401.1h3.4c1.9,0,2.8.8,2.8,2.2h0c0,.5,0,.9-.3,1.2-.3.3-.6.6-1,.7.5,0,.9.3,1.3.7.3.4.5.9.4,1.4h0c0,1.6-1,2.4-3,2.4h-3.5v-8.6ZM1387.5,404.6c.9,0,1.3-.3,1.3-1.1h0c0-.8-.4-1.1-1.3-1.1h-1.2v2.2h1.2ZM1387.7,408.3c1,0,1.4-.4,1.4-1.2h0c0-.8-.4-1.2-1.5-1.2h-1.2v2.5h1.3Z"/>
            <path d="M1391.5,407.9c0-1.5,1.3-2,3.3-2h.7v-.2c0-.7-.2-1.1-1-1.1-.1,0-.3,0-.4,0-.1,0-.2,0-.3.2-.1,0-.2.2-.2.3,0,.1,0,.2,0,.4h-1.7c.1-1.5,1.3-2.1,2.8-2.1s2.6.6,2.6,2.3v4.1h-1.7v-.8c-.2.3-.5.5-.8.7s-.7.2-1.1.2c-1.1,0-2.1-.6-2.1-1.9ZM1395.4,407.4v-.5h-.7c-1,0-1.6.2-1.6.9s.3.8.9.8c.8,0,1.4-.4,1.4-1.1Z"/>
            <path d="M1397.9,407.6h1.6c0,.5.3.9,1.1.9s1-.3,1-.7-.4-.6-1.3-.7c-1.7-.3-2.3-.7-2.3-2s1.2-2,2.5-2,2.4.5,2.6,1.9h-1.6c0-.5-.4-.8-1-.8s-.9.3-.9.6.3.5,1.2.7c1.6.2,2.4.6,2.4,2s-1,2.1-2.6,2.1-2.7-.7-2.7-2.1Z"/>
            <path d="M1403.7,406.6h0c0-.5,0-1,.2-1.4.2-.4.4-.8.7-1.1.3-.3.7-.5,1.1-.7.4-.2.8-.2,1.3-.2,1.6,0,3.1.9,3.1,3.2v.5h-4.5c0,1,.6,1.6,1.6,1.6s1.2-.3,1.3-.9h1.6c-.2,1.4-1.3,2.1-3,2.1-1.9,0-3.3-1.2-3.3-3.2ZM1408.2,405.8c0-.9-.5-1.4-1.4-1.4-.4,0-.7.1-1,.4-.3.3-.4.6-.4,1h2.8Z"/>
            <path d="M1410.4,406.6h0c0-.5,0-1,.2-1.4.2-.4.4-.8.7-1.1.3-.3.7-.5,1.1-.7s.8-.2,1.3-.2c1.4,0,2.8.6,2.9,2.4h-1.7c0-.2,0-.3-.1-.4,0-.1-.2-.3-.3-.4-.1,0-.2-.2-.4-.2-.2,0-.3,0-.5,0-.9,0-1.5.7-1.5,1.9h0c0,1.4.5,2,1.5,2,.2,0,.3,0,.5,0,.2,0,.3-.1.4-.3.1-.1.2-.2.3-.4,0-.2.1-.3.1-.5h1.6c0,1.5-1.2,2.5-3,2.5s-3.2-1.1-3.2-3.2Z"/>
            <path d="M1417,407.9c0-1.5,1.3-2,3.2-2h.7v-.2c0-.7-.2-1.1-1-1.1-.1,0-.3,0-.4,0-.1,0-.2,0-.3.2,0,0-.2.2-.2.3,0,.1,0,.2,0,.4h-1.7c.1-1.5,1.3-2.1,2.8-2.1s2.6.6,2.6,2.3v4.1h-1.7v-.8c-.2.3-.5.5-.8.7-.3.2-.7.2-1.1.2-1.1,0-2.1-.6-2.1-1.9ZM1420.9,407.4v-.5h-.7c-1,0-1.6.2-1.6.9s.3.8.9.8c.8,0,1.4-.4,1.4-1.1h0Z"/>
            <path d="M1423.9,403.3h1.7v1c.2-.3.5-.6.8-.8.3-.2.7-.3,1.1-.3.4,0,.7,0,1.1.3.3.2.6.5.7.8.2-.3.6-.6.9-.8.4-.2.8-.3,1.2-.3,1.2,0,2.1.7,2.1,2.4v4h-1.7v-3.8c0-.8-.3-1.2-1-1.2-.2,0-.3,0-.5,0-.2,0-.3.2-.4.3-.1.1-.2.3-.3.4,0,.2,0,.3,0,.5v3.7h-1.7v-3.8c0-.8-.4-1.2-1-1.2-.2,0-.3,0-.5,0-.2,0-.3.2-.4.3-.1.1-.2.3-.2.4,0,.2,0,.3,0,.5v3.7h-1.7v-6.3Z"/>
            <path d="M1434.6,403.3h1.7v1c.2-.3.5-.6.8-.8.4-.2.7-.3,1.2-.3,1.5,0,2.7,1.1,2.7,3.2h0c0,2.2-1.2,3.3-2.7,3.3-.4,0-.8,0-1.2-.3-.4-.2-.6-.5-.8-.8v3.1h-1.7v-8.4ZM1439.3,406.4c0-1.3-.6-1.9-1.5-1.9s-1.5.6-1.5,1.9h0c0,1.3.6,2,1.5,2s1.5-.6,1.5-1.8h0Z"/>
            <path class="cls-3" d="M1371.6,398.1c-4.9,0-7.4,4.1-8.8,8.2-.2.5-.7.7-1.2.6s-.7-.7-.6-1.2c1.5-4.1,4.4-9.4,10.6-9.4s5.6,2.1,7.1,4.7c1.5,2.6,2.3,5.8,2.5,8.4,0,.2,0,.4-.1.5-.9,1.5-2.3,2.5-4,3.1-1.7.6-3.6.8-5.5.8-1.6,0-3.2-.3-4.7-1-1.5-.7-2.8-1.6-3.9-2.8-.2-.3-.3-.6-.2-.9l.9.3-.9-.3h0s0,0,0,0c0,0,0,0,0-.2,0-.1.1-.3.2-.6.2-.5.5-1.1.8-1.7.3-.6.7-1.3,1.2-1.8.4-.5,1.1-1,1.9-1.1h0c.6,0,1.1.3,1.4.5.4.3.7.6.9.9,0,0,0,0,0,0,.2.3.4.4.6.6,0,0,0,0,0,0,0,0,.1-.1.2-.2.3-.3.6-.8.9-1.3.3-.5.6-1,.8-1.4.1-.2.2-.4.2-.5,0,0,0,0,0-.1h0c.2-.5.8-.7,1.2-.5s.7.8.4,1.2l-.8-.4.8.4h0s0,0,0,0h0c0,0,0,.1,0,.2,0,.1-.1.3-.2.5-.2.4-.5,1-.8,1.5-.3.5-.7,1.1-1,1.6-.2.2-.4.4-.6.6-.2.2-.5.4-1,.4s-1-.3-1.3-.6c-.3-.2-.5-.5-.8-.7,0,0,0,0,0,0-.3-.3-.5-.5-.7-.6-.2-.1-.3-.2-.3-.2h0s-.2,0-.5.4c-.3.4-.7.9-.9,1.4-.3.6-.6,1.1-.7,1.5,0,0,0,.1,0,.2.8.8,1.8,1.5,2.9,2,1.2.5,2.6.8,3.9.8h0c1.8,0,3.5-.2,4.8-.7,1.3-.5,2.2-1.1,2.8-2-.2-2.3-.9-5.1-2.2-7.3-1.3-2.3-3.2-3.8-5.5-3.8ZM1369.9,406s0,0,0,0c0,0,0,0,0,0Z"/>
          </g>
          <g>
            <rect class="cls-8" x="964" y="4" width="100" height="100" rx="10" ry="10"/>
            <path d="M1014,51.2h-1.2c-.2,0-.4.2-.4.4v8.1c0,.2.2.4.4.4h1.2c.2,0,.4-.2.4-.4v-8.1c0-.2-.2-.4-.4-.4ZM1026.8,51c-1.2,0-2.2.5-3,1.5h0c0,0,0,0,0,0-.5-1-1.4-1.5-2.6-1.5s-2.2.8-2.7,1.5v.2c-.1,0-.1-1.1-.1-1.1,0-.2-.2-.4-.4-.4h-1.2c-.2,0-.4.2-.4.4v8.1c0,.2.2.4.4.4h1.2c.2,0,.4-.2.4-.4v-4.6c0-1.4.8-2.3,2-2.3s1.9.8,1.9,2.2v4.7c0,.2.2.4.4.4h1.2c.2,0,.4-.2.4-.4v-4.6c0-1.4.8-2.3,2-2.3s1.9,1.4,1.9,2.2v4.6c0,.2.2.4.4.4h1.2c.2,0,.4-.2.4-.4v-5.3c0-2.2-1.1-3.4-3.1-3.4ZM1033.2,51.2h-1.2c-.2,0-.4.2-.4.4v8.1c0,.2.2.4.4.4h1.2c.2,0,.4-.2.4-.4v-8.1c0-.2-.2-.4-.4-.4ZM1039.9,51.2h-2v-2.1c0-.2-.2-.4-.4-.4h-1.2c-.2,0-.4.2-.4.4v2.1h-.8c-.2,0-.4.2-.4.4v.9c0,.2.2.4.4.4h.8v4.8c0,1.7.8,2.6,2.5,2.6s1.1-.1,1.6-.3c.1,0,.2-.2.2-.3v-.8c0-.1,0-.2-.2-.3,0,0-.2,0-.3,0-.2,0-.5,0-.7,0-.8,0-1.2-.4-1.2-1.2v-4.4h2c.2,0,.4-.2.4-.4v-.9c0-.2-.2-.4-.4-.4ZM1049.6,51.3c0,0-.2-.2-.3-.2h-1.2c-.2,0-.3,0-.3.2l-2.3,6.5-2.5-6.5c0-.1-.2-.2-.3-.2h-1.3c-.1,0-.2,0-.3.2,0,0,0,.2,0,.3l3.5,8.4h0c-.4.9-.8,1.1-1.3,1.1s-.6,0-.8-.2c-.2,0-.4,0-.5.2l-.3.8c0,0,0,.2,0,.3,0,0,.1.2.2.2.5.2,1.1.3,1.7.3,1.4,0,2.2-.7,2.9-2.5l3.3-8.6c0-.1,0-.2,0-.3ZM992.3,47.8h-1.2c-.2,0-.4.2-.4.4v4.5h-.1c-.8-1.2-1.8-1.7-3-1.7-2,0-4.1,1.6-4.1,4.6h0c0,3,2.1,4.6,4.1,4.6s2.2-.5,3-1.6v-.2c.1,0,.1,1.3.1,1.3,0,.2.2.4.4.4h1.2c.2,0,.4-.2.4-.4v-11.5c0-.2-.2-.4-.4-.4ZM985.5,55.6h0c0-1.7,1.1-2.9,2.6-2.9s2.6,1.3,2.6,2.9h0c0,1.7-1.2,2.9-2.6,2.9-1.5,0-2.6-1.3-2.6-2.9ZM998.6,51c-2.6,0-4.7,2-4.7,4.6h0c0,2.6,2,4.6,4.7,4.6s4.7-2,4.7-4.6h0c0-2.6-2.1-4.6-4.7-4.6ZM998.6,58.5c-1.6,0-2.8-1.3-2.8-2.9h0c0-1.7,1.2-2.9,2.7-2.9s2.8,1.3,2.8,2.9h0c0,1.7-1.2,2.9-2.8,2.9ZM1008.3,55.5l2.7-3.7c0-.1,0-.3,0-.4,0-.1-.2-.2-.3-.2h-1.1c-.1,0-.2,0-.3.2l-2,2.9-2-2.9c0,0-.2-.2-.3-.2h-1.2c-.1,0-.3,0-.3.2,0,.1,0,.3,0,.4l2.7,3.7-2.8,3.9c0,.1,0,.3,0,.4,0,.1.2.2.3.2h1.1c.1,0,.2,0,.3-.2l2.1-3.1,2.1,3.1c0,0,.2.2.3.2h1.2c.1,0,.3,0,.3-.2,0-.1,0-.3,0-.4l-2.8-3.9Z"/>
            <path d="M981,53.5c0-.5,0-1.1.2-2,.2-.7.7-1.4,1.3-2,.6-.5,1.3-.9,2.1-1.1.8-.2,1.4-.2,1.9-.1,0,0,.1,0,.2,0,0,0,0,.2,0,.2,0,0,0,0-.2,0-1.1,0-2.2.6-3.3,1.7-1,1-1.7,2.2-1.9,3.2,0,0,0,.1,0,.2,0,0-.2,0-.2,0,0,0,0,0,0-.2ZM978.3,52.3c0-.7,0-1.5.3-2.6.3-.9.9-1.9,1.7-2.6.7-.7,1.7-1.2,2.8-1.5,1-.2,1.9-.2,2.6-.1,0,0,.2,0,.2,0,0,0,0,.2,0,.3,0,0-.1,0-.2,0-1.4,0-3,.9-4.4,2.2-1.4,1.3-2.3,2.9-2.5,4.3,0,0,0,.2,0,.2,0,0-.2,0-.3,0,0,0,0-.1,0-.2Z"/>
            <path d="M1013.5,48.5c-.5,0-1,.4-1,1s.4,1,1,1,1-.4,1-1-.4-1-1-1ZM1032.6,48.5c-.5,0-1,.4-1,1s.4,1,1,1,1-.4,1-1-.4-1-1-1Z"/>
          </g>
          <g>
            <rect class="cls-8" x="909" y="176" width="100" height="100" rx="10" ry="10"/>
            <g class="cls-12">
              <g>
                <path class="cls-2" d="M962.9,221.2l-1.8-3.8h-6.1l3.7,7.7,4.1-3.8Z"/>
                <path class="cls-2" d="M977.3,217.3h-10.8l-14.8,17.4h5.9l3.9-4.6,2.1,4.6h10.2l1.4-7.7,1.2,4.3,3.7-4.4-2.7-9.5ZM969,233.3l-3.6-7.7,6.2-7.2-2.6,14.9Z"/>
                <path class="cls-2" d="M986.5,217.3l-9.9,15h5l3.8-5.9-1.5,8.2h5l3.1-17.4h-5.5Z"/>
                <path class="cls-2" d="M933.8,217.9c-.1.8-.2,1.6-.1,2.4.1,1.1.8,1.7,1.8,2.1.3.2.7.2,1.1.2.1,0,.3-.1.4-.2.4-.2.8-.4,1.2-.4.6,0,1.3,0,1.9.2.6.1,1.1.3,1.6.6.2.1.4.3.5.6.2.4.3,1,.8,1.1,0-.5,0-1.1,0-1.6,0-.5.1-1,.2-1.5.1-.7.3-1.3.5-2,0-.1.1-.6.3-.5,0,0,0,.2,0,.4,0,.4,0,.7,0,1.2-.1,1,0,2.1,0,3.1.1.5.2,1,.2,1.5,0,.1,0,.3-.1.5,0,.2,0,.2,0,.3,0,.2-.2.4-.3.5,0,0-.1.2-.1.3,0,.1-.1.1-.1.3,0,.2.3.5.5.5.7.2,1.5.3,1.9.7.3.3.5.6.5,1,0,.4,0,.7-.2,1-.1.2-.2.8-.4.9-.2.1-.3,0-.5.1,0,.2-.1.4-.2.6-.1.2-.3.3-.4.4,0,.4-.2.5-.5.5-.9.8-2.8.3-3.6-.3-.4.3-.8.5-.8,1.2.3.2.6.4,1,.5.5.2,1.2,0,1.5.4,0,0,0,0,0,0h2.7l7.6-8.8-4.1-8.5h-14.8c0,.2,0,.4,0,.6Z"/>
                <path class="cls-2" d="M926.9,234.6c.5-.5,1.2-.9,1.8-1.1.5-.2,1-.4,1.5-.8.1-.2.3-.3.5-.3.4,0,.8,0,1.1.2.4,0,.7,0,1.1,0,.3-.1.7-.3.9-.6.3-.2.5-.5.6-.8.1-.5.1-.9,0-1.4,0-1,.4-1.7.4-2.6,0-.5,0-.9,0-1.4-.5-.2-1-.5-1.5-.9-.4-.4-.8-1.2-.7-1.9-.4-.5-.5-1.2-.6-1.8,0-.7.2-1.3.4-1.9.2-.6.3-1.1.5-1.7h-3.3l-3.7,17.3h.8s0,0,0,0Z"/>
              </g>
            </g>
          </g>
          <g>
            <rect class="cls-8" x="1320" y="-23" width="100" height="100" rx="10" ry="10"/>
            <path class="cls-3" d="M1355.9,26.1c0,0,.2,0,.2.2v5.7s0,.1,0,.1c0,0-1.3.9-3.4.9s-5.6-.8-5.6-5.8,2.7-6.2,5.2-6.2,3.1.5,3.3.6c0,0,0,0,0,.1l-.4,1.8c0,0-.1.2-.2.2-.4-.1-.9-.3-2.2-.3s-3.1.4-3.1,3.7,1.5,3.7,2.7,3.7,1.3-.1,1.3-.1v-2.3h-1.5c0,0-.2,0-.2-.2v-1.8c0,0,0-.2.2-.2h3.9ZM1375.8,21.6v11c0,0,0,.2-.2.2h-2.2c-.1,0-.2,0-.2-.2v-4.7s-3.4,0-3.4,0v4.7c0,0,0,.2-.2.2h-2.2c0,0-.2,0-.2-.2v-11c0,0,0-.2.2-.2h2.2c0,0,.2,0,.2.2v4.1h3.4v-4.1c0,0,0-.2.2-.2h2.2c0,0,.2,0,.2.2ZM1360,23.1c0,.8-.6,1.4-1.4,1.4s-1.4-.6-1.4-1.4.6-1.4,1.4-1.4,1.4.6,1.4,1.4ZM1359.8,25.2v7.3c0,.2,0,.3-.3.3h-2c-.2,0-.3,0-.3-.3v-7.3c0,0,0-.2.2-.2h2.2c0,0,.2,0,.2.2ZM1384.1,25c0,0,.2,0,.2.2v7.4c0,0,0,.2-.2.2h-1.4c0,0-.1,0-.2,0,0,0,0-.4,0-.4,0,0-1.2.8-2.6.8s-3-.5-3-2.7v-5.1c0,0,0-.2.2-.2h2.2c0,0,.2,0,.2.2v4.7c0,.7.2,1.1,1,1.1s1.3-.4,1.3-.4v-5.4c0,0,0-.2.2-.2h2.2ZM1390,24.8c1.2,0,3,.4,3,3.8s-1.1,4.4-3.1,4.4-2.6-.8-2.6-.8c0,0,0,.4,0,.5,0,0,0,0-.2,0h-1.5c0,0-.2,0-.2-.2v-11c0,0,0-.2.2-.2h2.2c0,0,.2,0,.2.2v3.7s.8-.5,2.1-.5ZM1389.1,31c1.1,0,1.4-.3,1.4-2.2s-.8-2-1.5-1.9c-.6,0-1.1.3-1.1.3v3.5s.5.3,1.2.3ZM1366.1,25c.1,0,.2,0,.2.2v1.7c0,0,0,.2-.2.2h-1.6v3.1c0,.5.3.8,1.1.8s.5,0,.6,0,.2,0,.2.2v1.5c0,0,0,.1-.1.2-.1,0-.8.2-1.3.2-1.2,0-2.9-.2-2.9-2.7v-3.3h-1.1c-.1,0-.2,0-.2-.2v-1.4c0,0,0-.1.1-.2,0,0,1.2-.3,1.2-.3v-2.1c0,0,0-.1.1-.1h2.2c0,0,.1,0,.1.1v2.1h1.6Z"/>
          </g>
          <circle class="cls-9" cx="1213" cy="249" r="758"/>
          <circle class="cls-9" cx="1213" cy="249" r="1172"/>
          <circle class="cls-9" cx="1286" cy="249" r="499"/>
        </g>
      </g>
    </g>
  </g>
</svg>