<!DOCTYPE svg PUBLIC "-//W3C//DTD SVG 1.1//EN" "http://www.w3.org/Graphics/SVG/1.1/DTD/svg11.dtd">
<!-- Uploaded to: SVG Repo, www.svgrepo.com, Transformed by: SVG Repo Mixer Tools -->
<svg width="800px" height="800px" viewBox="0 0 24 24" fill="none" xmlns="http://www.w3.org/2000/svg">
<g id="SVGRepo_bgCarrier" stroke-width="0"/>
<g id="SVGRepo_tracerCarrier" stroke-linecap="round" stroke-linejoin="round"/>
<g id="SVGRepo_iconCarrier"> <path fill-rule="evenodd" clip-rule="evenodd" d="M12 3.53846C8.97834 3.53846 6.4931 5.96125 6.55645 8.90671C6.57371 9.7088 6.87531 10.6295 7.26658 11.4799C7.65191 12.3175 8.09318 13.0214 8.32703 13.3731C8.47203 13.5911 8.59914 13.8339 8.68953 14.1022L9.45 16.359H14.55L15.3105 14.1022C15.4009 13.8339 15.528 13.5911 15.673 13.3731C15.9068 13.0214 16.3481 12.3176 16.7334 11.4799C17.1247 10.6295 17.4263 9.7088 17.4435 8.90672C17.5069 5.96125 15.0217 3.53846 12 3.53846ZM14.3329 17.8974H9.66715V18.1538C9.66715 19.4284 10.7116 20.4615 12 20.4615C13.2884 20.4615 14.3329 19.4283 14.3329 18.1537V17.8974ZM8.1119 17.253L7.21409 14.5887C7.17307 14.4669 7.11104 14.3439 7.02767 14.2185C6.7687 13.8291 6.28136 13.0526 5.85102 12.1172C5.4266 11.1946 5.02543 10.0495 5.00156 8.93944C4.91874 5.08909 8.15014 2 12 2C15.8499 2 19.0813 5.0891 18.9984 8.93944C18.9746 10.0495 18.5734 11.1946 18.149 12.1172C17.7187 13.0526 17.2313 13.8291 16.9724 14.2185C16.889 14.3439 16.827 14.4669 16.786 14.5887L15.8881 17.253V18.1537C15.8881 20.2778 14.1474 22 12 22C9.85267 22 8.1119 20.278 8.1119 18.1538V17.253Z" fill="#f03e3e"/> </g>
</svg>