<svg width="377" height="182" viewBox="0 0 377 182" fill="none" xmlns="http://www.w3.org/2000/svg">
<path d="M144.193 0.181813V182H122.886L23.8097 39.2443H22.0341V182H0.0170468V0.181813H21.3239L120.756 143.293H122.531V0.181813H144.193ZM179.993 182V0.181813H255.81C269.423 0.181813 280.816 2.10534 289.99 5.95241C299.222 9.79947 306.147 15.1854 310.764 22.1101C315.439 29.0348 317.777 37.0544 317.777 46.169C317.777 53.0938 316.327 59.2786 313.427 64.7237C310.527 70.1096 306.532 74.5781 301.442 78.1293C296.352 81.6804 290.463 84.1662 283.775 85.5866V87.3622C291.114 87.7173 297.891 89.7 304.105 93.3104C310.379 96.9207 315.41 101.951 319.198 108.403C322.985 114.795 324.879 122.371 324.879 131.13C324.879 140.896 322.394 149.625 317.422 157.32C312.45 164.955 305.259 170.991 295.849 175.43C286.438 179.81 275.016 182 261.58 182H179.993ZM223.938 146.577H251.105C260.633 146.577 267.647 144.772 272.145 141.162C276.702 137.552 278.981 132.521 278.981 126.07C278.981 121.394 277.886 117.369 275.696 113.996C273.506 110.563 270.399 107.929 266.374 106.094C262.35 104.201 257.526 103.254 251.904 103.254H223.938V146.577ZM223.938 74.9332H248.264C253.058 74.9332 257.319 74.1342 261.048 72.5362C264.776 70.9382 267.677 68.63 269.748 65.6115C271.879 62.593 272.944 58.9531 272.944 54.6918C272.944 48.5956 270.784 43.8016 266.463 40.3097C262.143 36.8177 256.313 35.0717 248.974 35.0717H223.938V74.9332ZM376.282 0.181813V182H354.265V0.181813H376.282Z" fill="black"/>
</svg>
