<svg width="18" height="18" viewBox="0 0 18 18" fill="none" xmlns="http://www.w3.org/2000/svg">
<path fill-rule="evenodd" clip-rule="evenodd" d="M10.2929 0.542893C10.6834 0.152369 11.3166 0.152369 11.7071 0.542893L17.2071 6.04289C17.5976 6.43342 17.5976 7.06658 17.2071 7.45711C16.8886 7.77557 16.4088 7.83433 16.0308 7.6334L12.8603 10.8039L11.4363 14.6011C11.3862 14.7348 11.308 14.8562 11.2071 14.9571L9.70711 16.4571C9.31658 16.8476 8.68342 16.8476 8.29289 16.4571L5.5 13.6642L1.70711 17.4571C1.31658 17.8476 0.683417 17.8476 0.292893 17.4571C-0.0976311 17.0666 -0.0976311 16.4334 0.292893 16.0429L4.08579 12.25L1.29289 9.45711C0.902369 9.06658 0.902369 8.43342 1.29289 8.04289L2.79289 6.54289C2.89383 6.44195 3.01521 6.36379 3.14888 6.31367L6.94606 4.88973L10.1166 1.71919C9.91567 1.34118 9.97443 0.861356 10.2929 0.542893Z" fill="#F03F3F"/>
</svg>
