<svg width="60" height="60" viewBox="0 0 60 60" fill="none" xmlns="http://www.w3.org/2000/svg">
<path d="M29.7519 46.2041C30.3298 46.3789 49.0915 47.7941 49.0915 47.7941C49.0915 47.7941 51.1356 47.7941 49.0915 44.7279L29.7519 11L10.2533 46.2041C10.0469 46.6583 9.80518 47.4579 10.2533 47.7941C10.6955 48.1302 29.1741 46.3789 29.7519 46.2041Z" stroke="#4169E1" stroke-width="4" stroke-linecap="round" stroke-linejoin="round"/>
<g clip-path="url(#clip0_4_37)">
<path d="M29.2577 21.8362C29.4559 21.542 29.8889 21.542 30.0871 21.8362L35.3434 29.6397C35.5671 29.9719 35.3291 30.4191 34.9287 30.4191H24.4161C24.0157 30.4191 23.7777 29.9719 24.0015 29.6397L29.2577 21.8362Z" fill="#FF7F50"/>
<path d="M30.0871 41.046C29.8889 41.3403 29.4559 41.3403 29.2577 41.046L24.0015 33.2425C23.7778 32.9104 24.0157 32.4632 24.4162 32.4632H34.9287C35.3291 32.4632 35.5671 32.9104 35.3434 33.2425L30.0871 41.046Z" fill="#4169E1"/>
</g>
<defs>
<clipPath id="clip0_4_37">
<rect width="23.1677" height="23.1677" fill="white" transform="translate(13.405 31.726) rotate(-45)"/>
</clipPath>
</defs>
</svg>
