<svg width="60" height="60" viewBox="0 0 60 60" fill="none" xmlns="http://www.w3.org/2000/svg">
<path fill-rule="evenodd" clip-rule="evenodd" d="M25 9.20586C24.7206 9.66393 25 13.2059 27.5 14.7059C28.0914 15.2059 28 15.5 28 15.5C28 15.6277 28 15.5 26.2741 16.2826C24.2763 17.0991 24.5 17 23.5 17.5C22.5 18 21.3723 18.8776 19.8723 19.8776L18 21.7059C18 21.7059 17.5085 22.0239 18 23.2059C18.4915 24.3878 18.0914 25.2059 20.0447 25.3449C21.9979 25.484 22.8281 25.4092 23.5914 25.7059C24.8999 26.2146 24.8141 26.3747 25.5914 28.2059C26.1866 29.6078 26.5914 29.7059 26 31.2059C25.0914 31.7059 25.0914 31.7059 25.0914 31.7059C24.9436 31.7059 24.6969 31.9149 24.0914 32.2059C23.596 32.66 21.8281 33.9393 20.2914 35.3041C18.7547 36.669 17.1654 38.0916 16.7594 38.4653V38.4653C14.0856 37.1285 12.2952 32.7614 14.6602 30.9329V30.9329C15.9225 30.2696 16 29.7059 16 28.7059C15.1445 28.7115 13.4348 29.373 12.2686 30.9329C11.1473 32.4326 10.8168 33.7428 11.0914 35.598C11.3099 37.0756 12.5868 38.9495 13.9584 39.8061C14.9634 40.4338 14.9433 40.1637 14.3292 44.7606C14.1733 45.9284 14.0914 47.2059 13.5914 48.7059C13.5914 48.7059 12.8817 51.1502 13.5914 51.6502C13.9935 51.9335 15 52.2059 15 52.2059C16.5 52.7059 16.5914 50.7059 18.2819 48.5919C19.5914 46.7059 20 46.2059 21.5 45.2059C22.5 44.2059 24.7166 44.4789 24.8063 44.5698C27 45.7059 24.4942 48.6332 24.1539 50.0689C23.8136 51.5045 26 51.7059 26 51.7059C26 51.7059 27.5 51.7059 28.1617 50.7059C28.5811 50.072 29.2558 49.0961 29.2558 49.0961C30.992 46.5416 33.987 44.5717 36.897 44.0701C38.5 43.7059 39.1996 44.496 40 45.2059C40.8004 45.9157 41.5 47.7059 41.6628 48.8161C41.8256 49.9264 41.8924 50.2596 42.5809 50.7059C43.305 51.1752 44.1371 51.7059 45 51.7059C45.8629 51.7059 46.7336 51.5266 47 50.7059C47.1298 50.3059 46.8198 49.6442 46.8198 49.6442C45.237 40.3129 42.4359 32.5665 38.1317 25.6161C37.1557 24.0401 36.3572 22.6769 36.3572 22.5866C36.3572 22.4963 35.2169 19.7058 35.0914 18.2059C35.0914 19.2058 35.0807 18.0772 35.0914 18.2059C35.0914 17.7059 35.3232 16.4502 33 13.7059C31.8352 12.3299 28.2508 10.0912 27.5 9.70586C25.9608 8.91542 25.216 8.85169 25 9.20586ZM19.8723 12.6463C19.8723 13.3558 20.4138 14.2394 21.6395 15.5295C22.8971 16.8533 24.8407 16.2826 24.8407 16.2826L25.8795 15.8327C25.8795 15.8327 26.3449 15.0895 25.5 14.7059C24.6551 14.3223 23.7192 13.8205 23 13.2059C21.5449 11.9627 19.8723 12.0062 19.8723 12.6463Z" fill="black"/>
<path d="M42.5 21C42.5 21 47 17.0909 47 14.125C47 13.031 46.5259 11.9818 45.682 11.2082C44.8381 10.4346 43.6935 10 42.5 10C41.3065 10 40.1619 10.4346 39.318 11.2082C38.4741 11.9818 38 13.031 38 14.125C38 17.0909 42.5 21 42.5 21ZM42.5 16.1875C41.9033 16.1875 41.331 15.9702 40.909 15.5834C40.4871 15.1966 40.25 14.672 40.25 14.125C40.25 13.578 40.4871 13.0534 40.909 12.6666C41.331 12.2798 41.9033 12.0625 42.5 12.0625C43.0967 12.0625 43.669 12.2798 44.091 12.6666C44.5129 13.0534 44.75 13.578 44.75 14.125C44.75 14.672 44.5129 15.1966 44.091 15.5834C43.669 15.9702 43.0967 16.1875 42.5 16.1875Z" fill="black"/>
</svg>
